<svg width="744" height="416" viewBox="0 0 744 416" fill="none" xmlns="http://www.w3.org/2000/svg">
<path d="M1341.71 331.517C1250.84 365.963 1124.18 391.725 979.035 405.287C833.886 418.849 677.314 419.551 530.686 407.297C384.059 395.043 254.519 370.43 159.745 336.817C64.9713 303.204 9.58112 262.228 1.13365 219.482C-7.31382 176.736 31.593 134.301 112.544 97.9704C193.496 61.6393 312.548 33.1813 453.454 16.4802C594.359 -0.221003 750.254 -4.35172 899.862 4.65175C1049.47 13.6552 1185.5 35.3542 1289.4 66.7875L1093.7 117.41C1027.05 97.2451 939.784 83.3249 843.808 77.549C747.833 71.7731 647.824 74.4231 557.431 85.1371C467.038 95.8512 390.664 114.107 338.732 137.414C286.801 160.721 261.842 187.943 267.261 215.366C272.68 242.788 308.214 269.075 369.012 290.638C429.811 312.201 512.913 327.991 606.977 335.852C701.041 343.713 801.484 343.263 894.599 334.563C987.714 325.862 1068.96 309.335 1127.26 287.238L1341.71 331.517Z" fill="#F8F8F8"/>
</svg>
