<svg width="51" height="51" viewBox="0 0 51 51" fill="none" xmlns="http://www.w3.org/2000/svg">
<path fill-rule="evenodd" clip-rule="evenodd" d="M8.5 19.125V14.9303H12.75V19.125H23.375V10.625H27.625V19.125H38.25V14.875H42.5V19.125H44.1044C47.9357 19.3184 50.9957 22.6228 50.9957 26.6029C50.9957 28.645 50.184 30.4895 48.875 31.8261V51H2.125V31.8325C1.21125 30.9017 0.537625 29.7224 0.2125 28.3879C0.070125 27.8014 0 27.2021 0 26.6007C0 22.3316 3.46163 19.2079 6.88925 19.125H8.5V19.125ZM44.625 42.5H6.375V46.75H44.625V42.5ZM6.375 33.9426V38.25H44.625V33.9426L43.7601 33.9958C42.1133 33.9958 40.4855 33.422 39.1829 32.317C37.9589 33.354 36.3503 33.9936 34.6035 33.9936C32.878 33.9936 31.2758 33.3668 30.0518 32.3383C28.8171 33.3731 27.2021 33.9958 25.5127 33.9958C23.7979 33.9958 22.1659 33.3753 20.9461 32.3383C19.7009 33.3816 18.0859 33.9958 16.405 33.9958C14.7581 33.9958 13.1622 33.4433 11.815 32.317C10.6229 33.3349 8.993 33.9958 7.23775 33.9958L6.375 33.9426V33.9426ZM6.99125 23.375C5.65887 23.4791 4.34988 24.7244 4.25425 26.3946C4.14588 28.2795 5.59725 29.7627 7.344 29.7436C9.843 29.7139 11.4134 27.9161 11.8426 25.5C12.3037 27.37 13.9379 29.6969 16.4007 29.7415C18.8572 29.7861 20.6295 27.7036 20.9929 25.5808L21.0099 25.5C21.4328 27.71 23.1136 29.7415 25.4915 29.7415C27.9459 29.7415 29.5651 27.8885 30.107 25.5C30.634 27.9183 32.3064 29.7372 34.6056 29.7436C36.9601 29.75 38.76 27.7716 39.287 25.5C39.6865 27.2595 40.9955 29.7181 43.6454 29.7458C45.2582 29.7628 46.7479 28.3645 46.7479 26.5944C46.7479 24.8158 45.3687 23.4473 43.9471 23.3708L6.99125 23.375V23.375ZM8.82512 13.9166C4.794 12.597 5.95425 6.59813 10.7164 4.30525C10.8864 7.327 14.875 7.633 14.875 10.6845C14.875 11.9637 13.9379 13.3917 12.5715 13.9166C12.8987 12.835 12.1762 10.9076 10.7015 10.0725C9.20975 10.9374 8.44262 12.8392 8.82512 13.9166ZM38.573 13.8614C34.544 12.5417 35.7042 6.54287 40.4664 4.25C40.6364 7.27175 44.625 7.57775 44.625 10.6292C44.625 11.9085 43.6879 13.3365 42.3215 13.8614C42.6466 12.7797 41.9262 10.8524 40.4515 10.0173C38.9597 10.8821 38.1926 12.784 38.573 13.8614ZM23.7001 9.61137C19.669 8.29175 20.8293 2.29287 25.5914 0C25.7614 3.02175 29.75 3.32775 29.75 6.37925C29.75 7.6585 28.8129 9.0865 27.4465 9.61137C27.7716 8.52975 27.0513 6.60237 25.5765 5.76725C24.0848 6.63212 23.3176 8.534 23.7001 9.61137Z" fill="#ED4141"/>
</svg>
