<svg width="57" height="53" viewBox="0 0 57 53" fill="none" xmlns="http://www.w3.org/2000/svg">
<path d="M21.9747 33.9126H21.9656H21.9295C21.0905 33.9126 20.395 33.2483 20.3694 32.4022C20.2648 29.3278 20.5284 26.6133 21.7793 24.56C23.054 22.4677 25.2892 21.1589 28.884 20.7544L28.8842 20.7544C30.8952 20.5289 31.7981 19.9697 32.2663 19.2804C32.765 18.5461 32.8615 17.5583 32.9764 16.2005L32.9764 16.2001L32.9805 16.1524C33.0842 14.9362 33.2187 13.3602 34.0463 12.0458C34.9139 10.6678 36.4796 9.66022 39.2541 9.4561L39.2543 9.45608C41.8694 9.26474 43.1141 8.80615 43.7306 8.08879L21.9747 33.9126ZM21.9747 33.9126L21.9837 33.9123M21.9747 33.9126L21.9837 33.9123M21.9837 33.9123C22.845 33.8811 23.5199 33.16 23.4917 32.2977L23.4917 32.297M21.9837 33.9123L23.4917 32.297M23.4917 32.297C23.3847 29.1542 23.7036 27.2037 24.5572 25.9685C25.3864 24.7686 26.8031 24.1344 29.2314 23.8625L29.2317 23.8625M23.4917 32.297L29.2317 23.8625M29.2317 23.8625C32.2826 23.5187 33.9866 22.3879 34.9285 20.9068C35.8352 19.481 35.9774 17.8067 36.0877 16.5072L36.0915 16.4635L36.0915 16.4631M29.2317 23.8625L36.0915 16.4631M36.0915 16.4631C36.1457 15.8184 36.1924 15.2725 36.2837 14.7967C36.3744 14.3246 36.503 13.9585 36.6993 13.6685C37.0694 13.1217 37.7866 12.6974 39.4827 12.572C42.7935 12.3294 44.7862 11.6572 46.1004 10.1253C47.5303 8.45948 47.9013 6.00942 47.5816 1.94467L47.5815 1.944M36.0915 16.4631L47.5815 1.944M47.5815 1.944C47.5112 1.0653 46.6975 0.459721 45.9104 0.509497L45.9104 0.50943M47.5815 1.944L45.9104 0.50943M45.9104 0.50943L45.9023 0.510081M45.9104 0.50943L45.9023 0.510081M45.9023 0.510081C45.0427 0.578601 44.3967 1.32994 44.4683 2.19235M45.9023 0.510081L44.4683 2.19235M44.4683 2.19235C44.5999 3.86791 44.599 5.13973 44.467 6.10444C44.335 7.06879 44.0774 7.68378 43.7309 8.08836L44.4683 2.19235ZM9.77758 0.934926L9.2214 0.848839L7.66813 5.74619L2.87834 7.6081L2.01764 7.94267L2.76826 8.48055L6.94504 11.4735L7.23743 16.6047L7.28995 17.5262L8.03314 16.9788L12.1715 13.9309L17.1402 15.2366L18.0328 15.4711L17.7417 14.5953L16.1214 9.72014L18.9012 5.39718L19.4006 4.62056L18.4806 4.62675L18.4773 4.62676L13.338 4.66128L10.0851 0.683478L9.77758 0.934926ZM10.7343 6.4132L11.7141 7.61269L11.8657 7.79822L12.1052 7.79636L13.65 7.7844L12.8135 9.08503L12.6842 9.28602L12.7594 9.51284L13.2467 10.9828L11.7528 10.589L11.5215 10.528L11.3289 10.6699L10.0811 11.5888L9.99319 10.0432L9.97962 9.80446L9.78519 9.66516L8.5274 8.76409L9.97076 8.20219L10.1935 8.11547L10.2659 7.88764L10.7343 6.4132ZM17.4696 17.9896L17.458 17.4325L16.9055 17.5041L9.21512 18.5008L8.74041 18.5623L8.78119 19.0392C9.65858 29.2992 5.53028 41.3892 2.52968 49.7053L3.39666 50.1794C3.86746 49.5659 4.40863 48.8924 4.99857 48.1581C9.78031 42.2066 17.7668 32.2664 17.4696 17.9896ZM47.7316 25.4406L47.4391 24.5649L46.8656 25.2884L43.6737 29.3148L38.5324 29.3554L37.6092 29.3627L38.1198 30.1319L40.9625 34.4143L39.4133 39.3139L39.1349 40.1942L40.0243 39.9463L44.9767 38.5655L49.1554 41.5523L49.9063 42.089L49.9457 41.1668L50.165 36.0336L54.2972 32.9796L55.0394 32.431L54.1745 32.1089L49.3601 30.316L47.7316 25.4406ZM46.304 31.0279L46.7937 32.4956L46.8694 32.7225L47.0935 32.8059L48.5443 33.3463L47.2983 34.2662L47.106 34.4082L47.0957 34.647L47.0292 36.1919L45.7718 35.2925L45.577 35.1532L45.3464 35.2175L43.8543 35.6342L44.3213 34.1585L44.3935 33.9303L44.2611 33.731L43.4059 32.4435L44.9535 32.4315L45.1928 32.4296L45.3414 32.2421L46.304 31.0279ZM36.476 31.3757L36.3838 30.8739L35.8839 30.9763C29.1188 32.3625 22.6394 36.0644 17.3695 40.1431C12.0999 44.2216 7.99618 48.7107 5.99021 51.7229L6.68749 52.4135C18.1944 44.5905 29.5506 40.3014 37.4494 39.7466L38.0072 39.7075L37.9061 39.1575L36.476 31.3757ZM14.2763 20.9958C13.9272 26.1406 12.4054 30.6572 10.4523 34.5469C11.4234 30.2337 12.0878 25.6708 12.0201 21.2879L14.2763 20.9958ZM22.1746 40.4965C25.7342 38.0672 29.7289 35.947 33.9094 34.6951L34.3261 36.9644C30.5926 37.5509 26.4666 38.7607 22.1746 40.4965ZM26.375 4.75C23.7529 4.75 21.625 6.87786 21.625 9.5C21.625 12.1221 23.7529 14.25 26.375 14.25C28.9949 14.25 31.125 12.1223 31.125 9.5C31.125 6.8777 28.9949 4.75 26.375 4.75ZM26.375 7.875C27.2701 7.875 28 8.60347 28 9.5C28 10.3947 27.2697 11.125 26.375 11.125C25.4803 11.125 24.75 10.3947 24.75 9.5C24.75 8.60347 25.4799 7.875 26.375 7.875ZM47.6484 13.2032C45.0135 13.2032 42.875 15.3417 42.875 17.9766C42.875 20.6115 45.0135 22.75 47.6484 22.75C50.2833 22.75 52.4217 20.6115 52.4217 17.9766C52.4217 15.3417 50.2833 13.2032 47.6484 13.2032ZM47.6484 16.3282C48.5562 16.3282 49.2967 17.0673 49.2967 17.9766C49.2967 18.8841 48.5559 19.625 47.6484 19.625C46.7391 19.625 46 18.8844 46 17.9766C46 17.067 46.7388 16.3282 47.6484 16.3282Z" fill="#ED4141" stroke="#ED4141"/>
</svg>
