<svg width="55" height="53" viewBox="0 0 55 53" fill="none" xmlns="http://www.w3.org/2000/svg">
<mask id="path-1-outside-1_639_43" maskUnits="userSpaceOnUse" x="0" y="0" width="55" height="53" fill="black">
<rect fill="white" width="55" height="53"/>
<path fill-rule="evenodd" clip-rule="evenodd" d="M49.855 28.4921C47.7088 32.9565 43.6691 36.3054 38.3269 35.5064L38.1229 38.1031L35.49 36.724L37.3897 35.0432C36.7671 34.4121 34.9333 32.999 34.4785 28.9341C37.5194 26.1505 39.9079 21.8263 40.1884 16.3759C42.2305 15.3453 44.5616 15.2943 46.7971 16.463C51.6719 19.0171 51.8461 24.3443 49.855 28.4921ZM27.9186 30.277L29.3679 32.2383H25.5854L27.0282 30.2877C16.977 27.2958 16.7433 16.1634 16.7433 15.086C16.7433 9.00242 20.0519 2.99317 27.4405 2.99317C34.8312 2.99317 38.1378 8.93442 38.1378 15.0202C38.1378 16.072 37.768 27.4615 27.9186 30.277ZM17.5741 35.0432L19.4696 36.724L16.8346 38.1031L16.6328 35.5064C11.9152 36.622 7.20837 32.8715 5.10675 28.4921C3.1135 24.3443 3.28775 19.0171 8.1625 16.463C10.3661 15.3092 12.6675 15.3368 14.6905 16.3227C14.9561 21.8985 17.3829 26.2779 20.4726 29.0531C20.3664 29.9222 19.952 33.1372 17.5741 35.0432ZM47.6832 14.7694C45.1991 13.4711 42.5811 13.4074 40.2202 14.3211C39.8059 6.43127 34.674 1 27.4405 1C20.2474 1 15.1346 6.3654 14.6671 14.1808C13.7087 13.826 12.7036 13.6368 11.673 13.6368C10.1919 13.6368 8.715 14.0172 7.2785 14.7694C3.85087 16.565 2 19.8395 2 23.5751C2 25.4195 2.4505 27.3765 3.3855 29.3208C6.16075 35.0963 11.1014 37.6505 14.8817 37.6292L15.1559 41.1396L18.1904 39.5523C19.9839 42.8459 20.5364 46.4221 19.9052 50.7824C19.8181 51.3732 20.2559 52 20.955 52C21.4756 52 21.9261 51.6175 22.0047 51.0905C22.6932 46.3307 22.0536 42.2339 20.0689 38.5684L22.8123 37.1299L20.2984 34.9051C21.1951 33.73 21.8454 32.1682 22.2109 30.4045C22.7761 30.7828 23.3499 31.1164 23.9279 31.3947L21.8921 34.3632H26.531C25.0626 38.7512 25.7703 41.3159 26.5225 43.1901C27.2493 45.0027 27.8804 46.5666 26.242 50.5317C25.9509 51.235 26.4715 52 27.2216 52C27.6381 52 28.0312 51.7514 28.2013 51.3434C30.169 46.5772 29.2786 44.3567 28.4902 42.3975C27.7762 40.6211 27.2323 38.4516 28.7665 34.3632H33.059L30.9999 31.3501C31.58 31.059 32.1644 30.7169 32.7339 30.3238C33.093 32.1215 33.7496 33.7109 34.6613 34.9051L32.1453 37.1299L34.8908 38.5684C32.906 42.2318 32.2664 46.3329 32.957 51.0905C33.0314 51.6175 33.4861 52 34.0046 52C34.7059 52 35.1415 51.3732 35.0565 50.7824C34.4232 46.4221 34.9736 42.8438 36.7692 39.5523L39.8038 41.1396L40.0779 37.6292C46.727 37.5974 52.9596 30.4067 52.9596 23.5751C52.9596 19.8395 51.1109 16.565 47.6832 14.7694ZM46.8014 8.03771L47.8235 8.61568L48.0169 9.77376L48.8796 8.98117L50.0441 9.15329L49.5532 8.08446L50.0781 7.03475L48.9115 7.16862L48.0764 6.34628L47.8447 7.49585L46.8014 8.03771ZM46.8566 13.1481L46.2808 9.69514L43.2378 7.97608L46.3402 6.36328L47.033 2.93154L49.5256 5.38794L53 4.98633L51.436 8.11845L52.8916 11.3016L49.4321 10.781L46.8566 13.1481ZM6.86837 43.9381L7.96487 44.7222L8.02225 43.375L9.106 42.5739L7.84163 42.1L7.41663 40.823L6.57937 41.8791L5.23213 41.8897L5.978 43.0137L5.57212 44.2972L6.86837 43.9381ZM9.52675 47.9265L6.54325 45.791L3.00937 46.777L4.11438 43.2751L2.085 40.2174L5.75487 40.1855L8.035 37.3084L9.19525 40.7932L12.6335 42.0767L9.684 44.2589L9.52675 47.9265ZM10.8697 2.92517C9.76475 2.92517 8.868 3.82401 8.868 4.93109C8.868 6.03604 9.76475 6.93275 10.8697 6.93275C11.9747 6.93275 12.8715 6.03604 12.8715 4.93109C12.8715 3.82401 11.9747 2.92517 10.8697 2.92517ZM10.8697 8.8473C8.71287 8.8473 6.95762 7.09 6.95762 4.93109C6.95762 2.77218 8.71287 1.01275 10.8697 1.01275C13.0266 1.01275 14.7819 2.77218 14.7819 4.93109C14.7819 7.09 13.0266 8.8473 10.8697 8.8473ZM5.14287 9.9055C4.499 9.9055 3.97625 10.4304 3.97625 11.0742C3.97625 11.7181 4.499 12.2429 5.14287 12.2429C5.78675 12.2429 6.3095 11.7181 6.3095 11.0742C6.3095 10.4304 5.78675 9.9055 5.14287 9.9055ZM5.14287 14.1553C3.44712 14.1553 2.06588 12.772 2.06588 11.0742C2.06588 9.3764 3.44712 7.99521 5.14287 7.99521C6.83862 7.99521 8.222 9.3764 8.222 11.0742C8.222 12.772 6.83862 14.1553 5.14287 14.1553ZM41.4379 2.69993C40.8811 2.69993 40.4306 3.15466 40.4306 3.70926C40.4306 4.26599 40.8811 4.7186 41.4379 4.7186C41.9946 4.7186 42.4451 4.26599 42.4451 3.70926C42.4451 3.15466 41.9946 2.69993 41.4379 2.69993ZM41.4379 6.4164C39.9461 6.4164 38.7327 5.20307 38.7327 3.70926C38.7327 2.21545 39.9461 1 41.4379 1C42.9296 1 44.143 2.21545 44.143 3.70926C44.143 5.20307 42.9296 6.4164 41.4379 6.4164ZM46.6122 40.4639C45.384 40.4639 44.3831 41.4626 44.3831 42.695C44.3831 43.9253 45.384 44.924 46.6122 44.924C47.8405 44.924 48.8371 43.9253 48.8371 42.695C48.8371 41.4626 47.8405 40.4639 46.6122 40.4639ZM46.6122 46.8365C44.3279 46.8365 42.4706 44.9793 42.4706 42.695C42.4706 40.4086 44.3279 38.5514 46.6122 38.5514C48.8924 38.5514 50.7496 40.4086 50.7496 42.695C50.7496 44.9793 48.8924 46.8365 46.6122 46.8365Z"/>
</mask>
<path fill-rule="evenodd" clip-rule="evenodd" d="M49.855 28.4921C47.7088 32.9565 43.6691 36.3054 38.3269 35.5064L38.1229 38.1031L35.49 36.724L37.3897 35.0432C36.7671 34.4121 34.9333 32.999 34.4785 28.9341C37.5194 26.1505 39.9079 21.8263 40.1884 16.3759C42.2305 15.3453 44.5616 15.2943 46.7971 16.463C51.6719 19.0171 51.8461 24.3443 49.855 28.4921ZM27.9186 30.277L29.3679 32.2383H25.5854L27.0282 30.2877C16.977 27.2958 16.7433 16.1634 16.7433 15.086C16.7433 9.00242 20.0519 2.99317 27.4405 2.99317C34.8312 2.99317 38.1378 8.93442 38.1378 15.0202C38.1378 16.072 37.768 27.4615 27.9186 30.277ZM17.5741 35.0432L19.4696 36.724L16.8346 38.1031L16.6328 35.5064C11.9152 36.622 7.20837 32.8715 5.10675 28.4921C3.1135 24.3443 3.28775 19.0171 8.1625 16.463C10.3661 15.3092 12.6675 15.3368 14.6905 16.3227C14.9561 21.8985 17.3829 26.2779 20.4726 29.0531C20.3664 29.9222 19.952 33.1372 17.5741 35.0432ZM47.6832 14.7694C45.1991 13.4711 42.5811 13.4074 40.2202 14.3211C39.8059 6.43127 34.674 1 27.4405 1C20.2474 1 15.1346 6.3654 14.6671 14.1808C13.7087 13.826 12.7036 13.6368 11.673 13.6368C10.1919 13.6368 8.715 14.0172 7.2785 14.7694C3.85087 16.565 2 19.8395 2 23.5751C2 25.4195 2.4505 27.3765 3.3855 29.3208C6.16075 35.0963 11.1014 37.6505 14.8817 37.6292L15.1559 41.1396L18.1904 39.5523C19.9839 42.8459 20.5364 46.4221 19.9052 50.7824C19.8181 51.3732 20.2559 52 20.955 52C21.4756 52 21.9261 51.6175 22.0047 51.0905C22.6932 46.3307 22.0536 42.2339 20.0689 38.5684L22.8123 37.1299L20.2984 34.9051C21.1951 33.73 21.8454 32.1682 22.2109 30.4045C22.7761 30.7828 23.3499 31.1164 23.9279 31.3947L21.8921 34.3632H26.531C25.0626 38.7512 25.7703 41.3159 26.5225 43.1901C27.2493 45.0027 27.8804 46.5666 26.242 50.5317C25.9509 51.235 26.4715 52 27.2216 52C27.6381 52 28.0312 51.7514 28.2013 51.3434C30.169 46.5772 29.2786 44.3567 28.4902 42.3975C27.7762 40.6211 27.2323 38.4516 28.7665 34.3632H33.059L30.9999 31.3501C31.58 31.059 32.1644 30.7169 32.7339 30.3238C33.093 32.1215 33.7496 33.7109 34.6613 34.9051L32.1453 37.1299L34.8908 38.5684C32.906 42.2318 32.2664 46.3329 32.957 51.0905C33.0314 51.6175 33.4861 52 34.0046 52C34.7059 52 35.1415 51.3732 35.0565 50.7824C34.4232 46.4221 34.9736 42.8438 36.7692 39.5523L39.8038 41.1396L40.0779 37.6292C46.727 37.5974 52.9596 30.4067 52.9596 23.5751C52.9596 19.8395 51.1109 16.565 47.6832 14.7694ZM46.8014 8.03771L47.8235 8.61568L48.0169 9.77376L48.8796 8.98117L50.0441 9.15329L49.5532 8.08446L50.0781 7.03475L48.9115 7.16862L48.0764 6.34628L47.8447 7.49585L46.8014 8.03771ZM46.8566 13.1481L46.2808 9.69514L43.2378 7.97608L46.3402 6.36328L47.033 2.93154L49.5256 5.38794L53 4.98633L51.436 8.11845L52.8916 11.3016L49.4321 10.781L46.8566 13.1481ZM6.86837 43.9381L7.96487 44.7222L8.02225 43.375L9.106 42.5739L7.84163 42.1L7.41663 40.823L6.57937 41.8791L5.23213 41.8897L5.978 43.0137L5.57212 44.2972L6.86837 43.9381ZM9.52675 47.9265L6.54325 45.791L3.00937 46.777L4.11438 43.2751L2.085 40.2174L5.75487 40.1855L8.035 37.3084L9.19525 40.7932L12.6335 42.0767L9.684 44.2589L9.52675 47.9265ZM10.8697 2.92517C9.76475 2.92517 8.868 3.82401 8.868 4.93109C8.868 6.03604 9.76475 6.93275 10.8697 6.93275C11.9747 6.93275 12.8715 6.03604 12.8715 4.93109C12.8715 3.82401 11.9747 2.92517 10.8697 2.92517ZM10.8697 8.8473C8.71287 8.8473 6.95762 7.09 6.95762 4.93109C6.95762 2.77218 8.71287 1.01275 10.8697 1.01275C13.0266 1.01275 14.7819 2.77218 14.7819 4.93109C14.7819 7.09 13.0266 8.8473 10.8697 8.8473ZM5.14287 9.9055C4.499 9.9055 3.97625 10.4304 3.97625 11.0742C3.97625 11.7181 4.499 12.2429 5.14287 12.2429C5.78675 12.2429 6.3095 11.7181 6.3095 11.0742C6.3095 10.4304 5.78675 9.9055 5.14287 9.9055ZM5.14287 14.1553C3.44712 14.1553 2.06588 12.772 2.06588 11.0742C2.06588 9.3764 3.44712 7.99521 5.14287 7.99521C6.83862 7.99521 8.222 9.3764 8.222 11.0742C8.222 12.772 6.83862 14.1553 5.14287 14.1553ZM41.4379 2.69993C40.8811 2.69993 40.4306 3.15466 40.4306 3.70926C40.4306 4.26599 40.8811 4.7186 41.4379 4.7186C41.9946 4.7186 42.4451 4.26599 42.4451 3.70926C42.4451 3.15466 41.9946 2.69993 41.4379 2.69993ZM41.4379 6.4164C39.9461 6.4164 38.7327 5.20307 38.7327 3.70926C38.7327 2.21545 39.9461 1 41.4379 1C42.9296 1 44.143 2.21545 44.143 3.70926C44.143 5.20307 42.9296 6.4164 41.4379 6.4164ZM46.6122 40.4639C45.384 40.4639 44.3831 41.4626 44.3831 42.695C44.3831 43.9253 45.384 44.924 46.6122 44.924C47.8405 44.924 48.8371 43.9253 48.8371 42.695C48.8371 41.4626 47.8405 40.4639 46.6122 40.4639ZM46.6122 46.8365C44.3279 46.8365 42.4706 44.9793 42.4706 42.695C42.4706 40.4086 44.3279 38.5514 46.6122 38.5514C48.8924 38.5514 50.7496 40.4086 50.7496 42.695C50.7496 44.9793 48.8924 46.8365 46.6122 46.8365Z" fill="#ED4141"/>
<path fill-rule="evenodd" clip-rule="evenodd" d="M49.855 28.4921C47.7088 32.9565 43.6691 36.3054 38.3269 35.5064L38.1229 38.1031L35.49 36.724L37.3897 35.0432C36.7671 34.4121 34.9333 32.999 34.4785 28.9341C37.5194 26.1505 39.9079 21.8263 40.1884 16.3759C42.2305 15.3453 44.5616 15.2943 46.7971 16.463C51.6719 19.0171 51.8461 24.3443 49.855 28.4921ZM27.9186 30.277L29.3679 32.2383H25.5854L27.0282 30.2877C16.977 27.2958 16.7433 16.1634 16.7433 15.086C16.7433 9.00242 20.0519 2.99317 27.4405 2.99317C34.8312 2.99317 38.1378 8.93442 38.1378 15.0202C38.1378 16.072 37.768 27.4615 27.9186 30.277ZM17.5741 35.0432L19.4696 36.724L16.8346 38.1031L16.6328 35.5064C11.9152 36.622 7.20837 32.8715 5.10675 28.4921C3.1135 24.3443 3.28775 19.0171 8.1625 16.463C10.3661 15.3092 12.6675 15.3368 14.6905 16.3227C14.9561 21.8985 17.3829 26.2779 20.4726 29.0531C20.3664 29.9222 19.952 33.1372 17.5741 35.0432ZM47.6832 14.7694C45.1991 13.4711 42.5811 13.4074 40.2202 14.3211C39.8059 6.43127 34.674 1 27.4405 1C20.2474 1 15.1346 6.3654 14.6671 14.1808C13.7087 13.826 12.7036 13.6368 11.673 13.6368C10.1919 13.6368 8.715 14.0172 7.2785 14.7694C3.85087 16.565 2 19.8395 2 23.5751C2 25.4195 2.4505 27.3765 3.3855 29.3208C6.16075 35.0963 11.1014 37.6505 14.8817 37.6292L15.1559 41.1396L18.1904 39.5523C19.9839 42.8459 20.5364 46.4221 19.9052 50.7824C19.8181 51.3732 20.2559 52 20.955 52C21.4756 52 21.9261 51.6175 22.0047 51.0905C22.6932 46.3307 22.0536 42.2339 20.0689 38.5684L22.8123 37.1299L20.2984 34.9051C21.1951 33.73 21.8454 32.1682 22.2109 30.4045C22.7761 30.7828 23.3499 31.1164 23.9279 31.3947L21.8921 34.3632H26.531C25.0626 38.7512 25.7703 41.3159 26.5225 43.1901C27.2493 45.0027 27.8804 46.5666 26.242 50.5317C25.9509 51.235 26.4715 52 27.2216 52C27.6381 52 28.0312 51.7514 28.2013 51.3434C30.169 46.5772 29.2786 44.3567 28.4902 42.3975C27.7762 40.6211 27.2323 38.4516 28.7665 34.3632H33.059L30.9999 31.3501C31.58 31.059 32.1644 30.7169 32.7339 30.3238C33.093 32.1215 33.7496 33.7109 34.6613 34.9051L32.1453 37.1299L34.8908 38.5684C32.906 42.2318 32.2664 46.3329 32.957 51.0905C33.0314 51.6175 33.4861 52 34.0046 52C34.7059 52 35.1415 51.3732 35.0565 50.7824C34.4232 46.4221 34.9736 42.8438 36.7692 39.5523L39.8038 41.1396L40.0779 37.6292C46.727 37.5974 52.9596 30.4067 52.9596 23.5751C52.9596 19.8395 51.1109 16.565 47.6832 14.7694ZM46.8014 8.03771L47.8235 8.61568L48.0169 9.77376L48.8796 8.98117L50.0441 9.15329L49.5532 8.08446L50.0781 7.03475L48.9115 7.16862L48.0764 6.34628L47.8447 7.49585L46.8014 8.03771ZM46.8566 13.1481L46.2808 9.69514L43.2378 7.97608L46.3402 6.36328L47.033 2.93154L49.5256 5.38794L53 4.98633L51.436 8.11845L52.8916 11.3016L49.4321 10.781L46.8566 13.1481ZM6.86837 43.9381L7.96487 44.7222L8.02225 43.375L9.106 42.5739L7.84163 42.1L7.41663 40.823L6.57937 41.8791L5.23213 41.8897L5.978 43.0137L5.57212 44.2972L6.86837 43.9381ZM9.52675 47.9265L6.54325 45.791L3.00937 46.777L4.11438 43.2751L2.085 40.2174L5.75487 40.1855L8.035 37.3084L9.19525 40.7932L12.6335 42.0767L9.684 44.2589L9.52675 47.9265ZM10.8697 2.92517C9.76475 2.92517 8.868 3.82401 8.868 4.93109C8.868 6.03604 9.76475 6.93275 10.8697 6.93275C11.9747 6.93275 12.8715 6.03604 12.8715 4.93109C12.8715 3.82401 11.9747 2.92517 10.8697 2.92517ZM10.8697 8.8473C8.71287 8.8473 6.95762 7.09 6.95762 4.93109C6.95762 2.77218 8.71287 1.01275 10.8697 1.01275C13.0266 1.01275 14.7819 2.77218 14.7819 4.93109C14.7819 7.09 13.0266 8.8473 10.8697 8.8473ZM5.14287 9.9055C4.499 9.9055 3.97625 10.4304 3.97625 11.0742C3.97625 11.7181 4.499 12.2429 5.14287 12.2429C5.78675 12.2429 6.3095 11.7181 6.3095 11.0742C6.3095 10.4304 5.78675 9.9055 5.14287 9.9055ZM5.14287 14.1553C3.44712 14.1553 2.06588 12.772 2.06588 11.0742C2.06588 9.3764 3.44712 7.99521 5.14287 7.99521C6.83862 7.99521 8.222 9.3764 8.222 11.0742C8.222 12.772 6.83862 14.1553 5.14287 14.1553ZM41.4379 2.69993C40.8811 2.69993 40.4306 3.15466 40.4306 3.70926C40.4306 4.26599 40.8811 4.7186 41.4379 4.7186C41.9946 4.7186 42.4451 4.26599 42.4451 3.70926C42.4451 3.15466 41.9946 2.69993 41.4379 2.69993ZM41.4379 6.4164C39.9461 6.4164 38.7327 5.20307 38.7327 3.70926C38.7327 2.21545 39.9461 1 41.4379 1C42.9296 1 44.143 2.21545 44.143 3.70926C44.143 5.20307 42.9296 6.4164 41.4379 6.4164ZM46.6122 40.4639C45.384 40.4639 44.3831 41.4626 44.3831 42.695C44.3831 43.9253 45.384 44.924 46.6122 44.924C47.8405 44.924 48.8371 43.9253 48.8371 42.695C48.8371 41.4626 47.8405 40.4639 46.6122 40.4639ZM46.6122 46.8365C44.3279 46.8365 42.4706 44.9793 42.4706 42.695C42.4706 40.4086 44.3279 38.5514 46.6122 38.5514C48.8924 38.5514 50.7496 40.4086 50.7496 42.695C50.7496 44.9793 48.8924 46.8365 46.6122 46.8365Z" stroke="#ED4141" stroke-width="2" mask="url(#path-1-outside-1_639_43)"/>
</svg>
