<svg width="80" height="23" viewBox="0 0 80 23" fill="none" xmlns="http://www.w3.org/2000/svg">
<path d="M0.824 18V1.536H7.544C9.256 1.536 10.712 1.832 11.912 2.424C13.112 3.016 14.032 3.92 14.672 5.136C15.328 6.336 15.656 7.88 15.656 9.768C15.656 11.64 15.328 13.184 14.672 14.4C14.032 15.616 13.112 16.52 11.912 17.112C10.712 17.704 9.256 18 7.544 18H0.824ZM4.4 15.048H7.52C8.24 15.048 8.88 14.944 9.44 14.736C10 14.528 10.464 14.224 10.832 13.824C11.2 13.408 11.48 12.896 11.672 12.288C11.864 11.664 11.96 10.944 11.96 10.128V9.408C11.96 8.592 11.864 7.88 11.672 7.272C11.48 6.648 11.2 6.136 10.832 5.736C10.464 5.32 10 5.008 9.44 4.8C8.88 4.576 8.24 4.464 7.52 4.464H4.4V15.048Z" fill="#ED4141"/>
<path d="M20.1022 22.512C19.5102 22.512 19.0142 22.464 18.6142 22.368C18.2302 22.288 17.9822 22.232 17.8702 22.2V19.944H19.3342C19.7342 19.944 20.0942 19.848 20.4142 19.656C20.7342 19.48 21.0142 19.24 21.2542 18.936C21.4942 18.648 21.6702 18.336 21.7822 18L16.8382 5.376H20.3662L22.5262 11.208C22.6222 11.48 22.7262 11.824 22.8382 12.24C22.9662 12.64 23.0942 13.064 23.2222 13.512C23.3502 13.944 23.4542 14.328 23.5342 14.664H23.6542C23.7182 14.44 23.7902 14.176 23.8702 13.872C23.9502 13.568 24.0302 13.256 24.1102 12.936C24.2062 12.616 24.2942 12.312 24.3742 12.024C24.4702 11.72 24.5502 11.456 24.6142 11.232L26.4142 5.376H29.7742L25.4782 17.4C25.2382 18.104 24.9582 18.76 24.6382 19.368C24.3342 19.992 23.9742 20.536 23.5582 21C23.1422 21.48 22.6462 21.848 22.0702 22.104C21.5102 22.376 20.8542 22.512 20.1022 22.512ZM37.1392 18.288C35.7472 18.288 34.5792 18.056 33.6352 17.592C32.6912 17.112 31.9792 16.384 31.4992 15.408C31.0192 14.432 30.7792 13.192 30.7792 11.688C30.7792 10.168 31.0192 8.928 31.4992 7.968C31.9792 6.992 32.6832 6.272 33.6112 5.808C34.5552 5.328 35.7072 5.088 37.0672 5.088C38.3472 5.088 39.4272 5.32 40.3072 5.784C41.1872 6.232 41.8512 6.936 42.2992 7.896C42.7472 8.84 42.9712 10.064 42.9712 11.568V12.432H34.1632C34.1952 13.168 34.3072 13.792 34.4992 14.304C34.7072 14.816 35.0192 15.2 35.4352 15.456C35.8672 15.696 36.4352 15.816 37.1392 15.816C37.5232 15.816 37.8672 15.768 38.1712 15.672C38.4912 15.576 38.7632 15.432 38.9872 15.24C39.2112 15.048 39.3872 14.808 39.5152 14.52C39.6432 14.232 39.7072 13.904 39.7072 13.536H42.9712C42.9712 14.336 42.8272 15.032 42.5392 15.624C42.2512 16.216 41.8512 16.712 41.3392 17.112C40.8272 17.496 40.2112 17.792 39.4912 18C38.7872 18.192 38.0032 18.288 37.1392 18.288ZM34.2112 10.32H39.5392C39.5392 9.84 39.4752 9.424 39.3472 9.072C39.2352 8.72 39.0752 8.432 38.8672 8.208C38.6592 7.984 38.4032 7.824 38.0992 7.728C37.8112 7.616 37.4832 7.56 37.1152 7.56C36.5072 7.56 35.9952 7.664 35.5792 7.872C35.1792 8.064 34.8672 8.368 34.6432 8.784C34.4352 9.184 34.2912 9.696 34.2112 10.32ZM45.4188 18V0.647999H48.7548V18H45.4188ZM57.6253 18.288C56.2493 18.288 55.0813 18.056 54.1213 17.592C53.1613 17.112 52.4333 16.384 51.9373 15.408C51.4413 14.416 51.1933 13.176 51.1933 11.688C51.1933 10.168 51.4413 8.928 51.9373 7.968C52.4333 6.992 53.1613 6.272 54.1213 5.808C55.0813 5.328 56.2493 5.088 57.6253 5.088C59.0333 5.088 60.2093 5.328 61.1533 5.808C62.1133 6.272 62.8413 6.992 63.3373 7.968C63.8333 8.928 64.0813 10.168 64.0813 11.688C64.0813 13.176 63.8333 14.416 63.3373 15.408C62.8413 16.384 62.1133 17.112 61.1533 17.592C60.2093 18.056 59.0333 18.288 57.6253 18.288ZM57.6253 15.696C58.3613 15.696 58.9453 15.56 59.3773 15.288C59.8253 15.016 60.1533 14.6 60.3613 14.04C60.5693 13.48 60.6733 12.792 60.6733 11.976V11.4C60.6733 10.584 60.5693 9.896 60.3613 9.336C60.1533 8.776 59.8253 8.36 59.3773 8.088C58.9453 7.8 58.3613 7.656 57.6253 7.656C56.9053 7.656 56.3213 7.8 55.8733 8.088C55.4413 8.36 55.1213 8.776 54.9133 9.336C54.7053 9.896 54.6013 10.584 54.6013 11.4V11.976C54.6013 12.792 54.7053 13.48 54.9133 14.04C55.1213 14.6 55.4413 15.016 55.8733 15.288C56.3213 15.56 56.9053 15.696 57.6253 15.696ZM68.6 22.512C68.04 22.512 67.512 22.392 67.016 22.152C66.52 21.928 66.12 21.592 65.816 21.144C65.512 20.696 65.36 20.16 65.36 19.536C65.36 18.832 65.56 18.272 65.96 17.856C66.376 17.424 66.84 17.104 67.352 16.896C66.984 16.688 66.68 16.416 66.44 16.08C66.216 15.744 66.104 15.352 66.104 14.904C66.104 14.28 66.328 13.776 66.776 13.392C67.24 12.992 67.768 12.736 68.36 12.624C67.768 12.256 67.304 11.792 66.968 11.232C66.648 10.656 66.488 10.016 66.488 9.312C66.488 8.4 66.712 7.632 67.16 7.008C67.624 6.384 68.28 5.912 69.128 5.592C69.992 5.256 71.008 5.088 72.176 5.088C72.64 5.088 73.072 5.112 73.472 5.16C73.888 5.208 74.264 5.288 74.6 5.4C75.192 5.048 75.592 4.664 75.8 4.248C76.024 3.816 76.144 3.472 76.16 3.216H79.256C79.256 3.808 79.144 4.32 78.92 4.752C78.712 5.184 78.408 5.544 78.008 5.832C77.608 6.104 77.128 6.304 76.568 6.432C76.984 6.784 77.304 7.208 77.528 7.704C77.752 8.2 77.864 8.736 77.864 9.312C77.864 10.208 77.648 10.976 77.216 11.616C76.784 12.24 76.168 12.72 75.368 13.056C74.584 13.392 73.64 13.56 72.536 13.56H70.616C70.232 13.56 69.944 13.632 69.752 13.776C69.56 13.904 69.464 14.096 69.464 14.352C69.464 14.56 69.544 14.744 69.704 14.904C69.88 15.048 70.16 15.12 70.544 15.12H75.8C76.856 15.12 77.696 15.448 78.32 16.104C78.96 16.744 79.28 17.568 79.28 18.576C79.28 19.344 79.08 20.024 78.68 20.616C78.28 21.208 77.728 21.672 77.024 22.008C76.32 22.344 75.512 22.512 74.6 22.512H68.6ZM69.992 20.28H74.432C74.72 20.28 74.976 20.224 75.2 20.112C75.424 20.016 75.6 19.872 75.728 19.68C75.856 19.504 75.92 19.296 75.92 19.056C75.92 18.64 75.792 18.328 75.536 18.12C75.28 17.912 74.96 17.808 74.576 17.808H69.992C69.608 17.808 69.288 17.92 69.032 18.144C68.792 18.368 68.672 18.664 68.672 19.032C68.672 19.4 68.792 19.696 69.032 19.92C69.288 20.16 69.608 20.28 69.992 20.28ZM72.176 11.4C72.96 11.4 73.552 11.224 73.952 10.872C74.368 10.504 74.576 9.984 74.576 9.312C74.576 8.64 74.368 8.128 73.952 7.776C73.552 7.408 72.96 7.224 72.176 7.224C71.408 7.224 70.816 7.408 70.4 7.776C70 8.128 69.8 8.64 69.8 9.312C69.8 9.744 69.888 10.12 70.064 10.44C70.24 10.76 70.504 11 70.856 11.16C71.208 11.32 71.648 11.4 72.176 11.4Z" fill="#0F0E0E"/>
</svg>
