<svg width="38" height="38" viewBox="0 0 38 38" fill="none" xmlns="http://www.w3.org/2000/svg">
<path fill-rule="evenodd" clip-rule="evenodd" d="M19 0C8.50662 0 0 8.50662 0 19C0 29.4934 8.50662 38 19 38C29.4934 38 38 29.4934 38 19C38 8.50662 29.4934 0 19 0ZM14.8226 8.92786C15.9035 8.8787 16.2489 8.86667 19.0009 8.86667H18.9978C21.7507 8.86667 22.0948 8.8787 23.1757 8.92786C24.2545 8.97726 24.9913 9.1481 25.6373 9.39867C26.3044 9.6573 26.8681 10.0035 27.4317 10.5672C27.9955 11.1304 28.3417 11.6958 28.6013 12.3623C28.8505 13.0066 29.0215 13.7429 29.0721 14.8217C29.1207 15.9027 29.1333 16.248 29.1333 19.0001C29.1333 21.7521 29.1207 22.0967 29.0721 23.1776C29.0215 24.256 28.8505 24.9925 28.6013 25.6371C28.3417 26.3034 27.9955 26.8687 27.4317 27.432C26.8687 27.9956 26.3042 28.3427 25.638 28.6016C24.9932 28.8521 24.256 29.0229 23.1772 29.0723C22.0963 29.1215 21.752 29.1336 18.9997 29.1336C16.2479 29.1336 15.9027 29.1215 14.8217 29.0723C13.7432 29.0229 13.0066 28.8521 12.3619 28.6016C11.6958 28.3427 11.1304 27.9956 10.5674 27.432C10.0039 26.8687 9.6577 26.3034 9.39867 25.6369C9.14826 24.9925 8.9775 24.2562 8.92786 23.1774C8.87894 22.0965 8.86667 21.7521 8.86667 19.0001C8.86667 16.248 8.87933 15.9024 8.9277 14.8215C8.97623 13.7432 9.14723 13.0066 9.39843 12.362C9.6581 11.6958 10.0044 11.1304 10.568 10.5672C11.1313 10.0037 11.6966 9.65746 12.3631 9.39867C13.0075 9.1481 13.7438 8.97726 14.8226 8.92786Z" fill="white"/>
<path fill-rule="evenodd" clip-rule="evenodd" d="M18.092 10.6927C18.2684 10.6925 18.4583 10.6926 18.6632 10.6926L19.001 10.6927C21.7066 10.6927 22.0273 10.7025 23.0958 10.751C24.0838 10.7962 24.62 10.9613 24.9772 11.1C25.4501 11.2836 25.7872 11.5032 26.1417 11.8579C26.4964 12.2126 26.7159 12.5504 26.9 13.0232C27.0387 13.38 27.204 13.9162 27.249 14.9042C27.2975 15.9725 27.3081 16.2934 27.3081 18.9977C27.3081 21.7021 27.2975 22.023 27.249 23.0912C27.2038 24.0792 27.0387 24.6154 26.9 24.9722C26.7164 25.4451 26.4964 25.7819 26.1417 26.1363C25.787 26.491 25.4503 26.7106 24.9772 26.8943C24.6204 27.0336 24.0838 27.1983 23.0958 27.2434C22.0275 27.292 21.7066 27.3025 19.001 27.3025C16.2952 27.3025 15.9745 27.292 14.9062 27.2434C13.9182 27.1978 13.382 27.0327 13.0246 26.894C12.5517 26.7104 12.2139 26.4907 11.8593 26.1361C11.5046 25.7814 11.2851 25.4445 11.1009 24.9714C10.9622 24.6147 10.7969 24.0784 10.7519 23.0904C10.7034 22.0222 10.6937 21.7012 10.6937 18.9952C10.6937 16.2892 10.7034 15.97 10.7519 14.9017C10.7972 13.9137 10.9622 13.3775 11.1009 13.0203C11.2846 12.5474 11.5046 12.2096 11.8593 11.855C12.2139 11.5003 12.5517 11.2807 13.0246 11.0966C13.3818 10.9573 13.9182 10.7926 14.9062 10.7472C15.841 10.705 16.2034 10.6923 18.092 10.6902V10.6927ZM24.4102 12.3753C23.7388 12.3753 23.1941 12.9194 23.1941 13.5909C23.1941 14.2623 23.7388 14.8069 24.4102 14.8069C25.0815 14.8069 25.6262 14.2623 25.6262 13.5909C25.6262 12.9196 25.0815 12.3749 24.4102 12.3749V12.3753ZM13.7971 19.0001C13.7971 16.1262 16.127 13.7962 19.0008 13.7961C21.8747 13.7961 24.2041 16.1262 24.2041 19.0001C24.2041 21.874 21.8749 24.203 19.001 24.203C16.1271 24.203 13.7971 21.874 13.7971 19.0001Z" fill="white"/>
<path d="M19.0009 15.6223C20.8663 15.6223 22.3787 17.1346 22.3787 19.0001C22.3787 20.8655 20.8663 22.3779 19.0009 22.3779C17.1354 22.3779 15.6231 20.8655 15.6231 19.0001C15.6231 17.1346 17.1354 15.6223 19.0009 15.6223Z" fill="white"/>
</svg>
