<svg width="81" height="26" viewBox="0 0 81 26" fill="none" xmlns="http://www.w3.org/2000/svg">
<path d="M2.03494 21V4.536H8.75494C10.4669 4.536 11.9229 4.832 13.1229 5.424C14.3229 6.016 15.2429 6.92 15.8829 8.136C16.5389 9.336 16.8669 10.88 16.8669 12.768C16.8669 14.64 16.5389 16.184 15.8829 17.4C15.2429 18.616 14.3229 19.52 13.1229 20.112C11.9229 20.704 10.4669 21 8.75494 21H2.03494ZM5.61094 18.048H8.73094C9.45094 18.048 10.0909 17.944 10.6509 17.736C11.2109 17.528 11.6749 17.224 12.0429 16.824C12.4109 16.408 12.6909 15.896 12.8829 15.288C13.0749 14.664 13.1709 13.944 13.1709 13.128V12.408C13.1709 11.592 13.0749 10.88 12.8829 10.272C12.6909 9.648 12.4109 9.136 12.0429 8.736C11.6749 8.32 11.2109 8.008 10.6509 7.8C10.0909 7.576 9.45094 7.464 8.73094 7.464H5.61094V18.048Z" fill="#ED4141"/>
<path d="M21.3131 25.512C20.7211 25.512 20.2251 25.464 19.8251 25.368C19.4411 25.288 19.1931 25.232 19.0811 25.2V22.944H20.5451C20.9451 22.944 21.3051 22.848 21.6251 22.656C21.9451 22.48 22.2251 22.24 22.4651 21.936C22.7051 21.648 22.8811 21.336 22.9931 21L18.0491 8.376H21.5771L23.7371 14.208C23.8331 14.48 23.9371 14.824 24.0491 15.24C24.1771 15.64 24.3051 16.064 24.4331 16.512C24.5611 16.944 24.6651 17.328 24.7451 17.664H24.8651C24.9291 17.44 25.0011 17.176 25.0811 16.872C25.1611 16.568 25.2411 16.256 25.3211 15.936C25.4171 15.616 25.5051 15.312 25.5851 15.024C25.6811 14.72 25.7611 14.456 25.8251 14.232L27.6251 8.376H30.9851L26.6891 20.4C26.4491 21.104 26.1691 21.76 25.8491 22.368C25.5451 22.992 25.1851 23.536 24.7691 24C24.3531 24.48 23.8571 24.848 23.2811 25.104C22.7211 25.376 22.0651 25.512 21.3131 25.512ZM38.3501 21.288C36.9581 21.288 35.7901 21.056 34.8461 20.592C33.9021 20.112 33.1901 19.384 32.7101 18.408C32.2301 17.432 31.9901 16.192 31.9901 14.688C31.9901 13.168 32.2301 11.928 32.7101 10.968C33.1901 9.992 33.8941 9.272 34.8221 8.808C35.7661 8.328 36.9181 8.088 38.2781 8.088C39.5581 8.088 40.6381 8.32 41.5181 8.784C42.3981 9.232 43.0621 9.936 43.5101 10.896C43.9581 11.84 44.1821 13.064 44.1821 14.568V15.432H35.3741C35.4061 16.168 35.5181 16.792 35.7101 17.304C35.9181 17.816 36.2301 18.2 36.6461 18.456C37.0781 18.696 37.6461 18.816 38.3501 18.816C38.7341 18.816 39.0781 18.768 39.3821 18.672C39.7021 18.576 39.9741 18.432 40.1981 18.24C40.4221 18.048 40.5981 17.808 40.7261 17.52C40.8541 17.232 40.9181 16.904 40.9181 16.536H44.1821C44.1821 17.336 44.0381 18.032 43.7501 18.624C43.4621 19.216 43.0621 19.712 42.5501 20.112C42.0381 20.496 41.4221 20.792 40.7021 21C39.9981 21.192 39.2141 21.288 38.3501 21.288ZM35.4221 13.32H40.7501C40.7501 12.84 40.6861 12.424 40.5581 12.072C40.4461 11.72 40.2861 11.432 40.0781 11.208C39.8701 10.984 39.6141 10.824 39.3101 10.728C39.0221 10.616 38.6941 10.56 38.3261 10.56C37.7181 10.56 37.2061 10.664 36.7901 10.872C36.3901 11.064 36.0781 11.368 35.8541 11.784C35.6461 12.184 35.5021 12.696 35.4221 13.32Z" fill="white"/>
<path d="M46.6298 21V3.648H49.9658V21H46.6298ZM58.8362 21.288C57.4602 21.288 56.2922 21.056 55.3322 20.592C54.3722 20.112 53.6442 19.384 53.1482 18.408C52.6522 17.416 52.4042 16.176 52.4042 14.688C52.4042 13.168 52.6522 11.928 53.1482 10.968C53.6442 9.992 54.3722 9.272 55.3322 8.808C56.2922 8.328 57.4602 8.088 58.8362 8.088C60.2442 8.088 61.4202 8.328 62.3642 8.808C63.3242 9.272 64.0522 9.992 64.5482 10.968C65.0442 11.928 65.2922 13.168 65.2922 14.688C65.2922 16.176 65.0442 17.416 64.5482 18.408C64.0522 19.384 63.3242 20.112 62.3642 20.592C61.4202 21.056 60.2442 21.288 58.8362 21.288ZM58.8362 18.696C59.5722 18.696 60.1562 18.56 60.5882 18.288C61.0362 18.016 61.3642 17.6 61.5722 17.04C61.7802 16.48 61.8842 15.792 61.8842 14.976V14.4C61.8842 13.584 61.7802 12.896 61.5722 12.336C61.3642 11.776 61.0362 11.36 60.5882 11.088C60.1562 10.8 59.5722 10.656 58.8362 10.656C58.1162 10.656 57.5322 10.8 57.0842 11.088C56.6522 11.36 56.3322 11.776 56.1242 12.336C55.9162 12.896 55.8122 13.584 55.8122 14.4V14.976C55.8122 15.792 55.9162 16.48 56.1242 17.04C56.3322 17.6 56.6522 18.016 57.0842 18.288C57.5322 18.56 58.1162 18.696 58.8362 18.696ZM69.8109 25.512C69.2509 25.512 68.7229 25.392 68.2269 25.152C67.7309 24.928 67.3309 24.592 67.0269 24.144C66.7229 23.696 66.5709 23.16 66.5709 22.536C66.5709 21.832 66.7709 21.272 67.1709 20.856C67.5869 20.424 68.0509 20.104 68.5629 19.896C68.1949 19.688 67.8909 19.416 67.6509 19.08C67.4269 18.744 67.3149 18.352 67.3149 17.904C67.3149 17.28 67.5389 16.776 67.9869 16.392C68.4509 15.992 68.9789 15.736 69.5709 15.624C68.9789 15.256 68.5149 14.792 68.1789 14.232C67.8589 13.656 67.6989 13.016 67.6989 12.312C67.6989 11.4 67.9229 10.632 68.3709 10.008C68.8349 9.384 69.4909 8.912 70.3389 8.592C71.2029 8.256 72.2189 8.088 73.3869 8.088C73.8509 8.088 74.2829 8.112 74.6829 8.16C75.0989 8.208 75.4749 8.288 75.8109 8.4C76.4029 8.048 76.8029 7.664 77.0109 7.248C77.2349 6.816 77.3549 6.472 77.3709 6.216H80.4669C80.4669 6.808 80.3549 7.32 80.1309 7.752C79.9229 8.184 79.6189 8.544 79.2189 8.832C78.8189 9.104 78.3389 9.304 77.7789 9.432C78.1949 9.784 78.5149 10.208 78.7389 10.704C78.9629 11.2 79.0749 11.736 79.0749 12.312C79.0749 13.208 78.8589 13.976 78.4269 14.616C77.9949 15.24 77.3789 15.72 76.5789 16.056C75.7949 16.392 74.8509 16.56 73.7469 16.56H71.8269C71.4429 16.56 71.1549 16.632 70.9629 16.776C70.7709 16.904 70.6749 17.096 70.6749 17.352C70.6749 17.56 70.7549 17.744 70.9149 17.904C71.0909 18.048 71.3709 18.12 71.7549 18.12H77.0109C78.0669 18.12 78.9069 18.448 79.5309 19.104C80.1709 19.744 80.4909 20.568 80.4909 21.576C80.4909 22.344 80.2909 23.024 79.8909 23.616C79.4909 24.208 78.9389 24.672 78.2349 25.008C77.5309 25.344 76.7229 25.512 75.8109 25.512H69.8109ZM71.2029 23.28H75.6429C75.9309 23.28 76.1869 23.224 76.4109 23.112C76.6349 23.016 76.8109 22.872 76.9389 22.68C77.0669 22.504 77.1309 22.296 77.1309 22.056C77.1309 21.64 77.0029 21.328 76.7469 21.12C76.4909 20.912 76.1709 20.808 75.7869 20.808H71.2029C70.8189 20.808 70.4989 20.92 70.2429 21.144C70.0029 21.368 69.8829 21.664 69.8829 22.032C69.8829 22.4 70.0029 22.696 70.2429 22.92C70.4989 23.16 70.8189 23.28 71.2029 23.28ZM73.3869 14.4C74.1709 14.4 74.7629 14.224 75.1629 13.872C75.5789 13.504 75.7869 12.984 75.7869 12.312C75.7869 11.64 75.5789 11.128 75.1629 10.776C74.7629 10.408 74.1709 10.224 73.3869 10.224C72.6189 10.224 72.0269 10.408 71.6109 10.776C71.2109 11.128 71.0109 11.64 71.0109 12.312C71.0109 12.744 71.0989 13.12 71.2749 13.44C71.4509 13.76 71.7149 14 72.0669 14.16C72.4189 14.32 72.8589 14.4 73.3869 14.4Z" fill="#FEF8F8"/>
</svg>
