<svg width="16" height="16" viewBox="0 0 16 16" fill="none" xmlns="http://www.w3.org/2000/svg">
<path d="M11.7708 1.56247C10.7293 0.520714 9.4722 0 8 0C6.52772 0 5.27081 0.520824 4.22916 1.56247C3.18755 2.60408 2.66669 3.86103 2.66669 5.33331C2.66669 6.09034 2.78125 6.71179 3.01034 7.19791L6.81244 15.2606C6.91665 15.4896 7.07817 15.6701 7.29689 15.802C7.51566 15.9339 7.75 16 8.00007 16C8.25006 16 8.48452 15.9339 8.70325 15.802C8.92201 15.6701 9.08681 15.4896 9.19795 15.2606L12.9894 7.19791C13.2186 6.71179 13.3332 6.0903 13.3332 5.33331C13.3334 3.86103 12.8127 2.60423 11.7708 1.56247ZM9.88532 7.21875C9.36457 7.73946 8.73615 7.99993 8 7.99993C7.26384 7.99993 6.63542 7.73946 6.11452 7.21875C5.5937 6.69785 5.33323 6.06943 5.33323 5.33327C5.33323 4.59719 5.5937 3.96866 6.11452 3.44791C6.63542 2.92708 7.26395 2.66662 8 2.66662C8.73615 2.66662 9.36457 2.92708 9.88532 3.44791C10.4061 3.96862 10.6666 4.59719 10.6666 5.33327C10.6666 6.06936 10.4061 6.69774 9.88532 7.21875Z" fill="#9099A0"/>
</svg>
