<svg width="51" height="51" viewBox="0 0 51 51" fill="none" xmlns="http://www.w3.org/2000/svg">
<path fill-rule="evenodd" clip-rule="evenodd" d="M24.1017 23.1455C24.9772 22.0533 25.6424 21.2181 25.9887 20.7719C26.2331 20.4574 26.2692 20.0048 26.1757 19.618C25.6955 17.8415 24.8837 14.6582 27.9586 11.4389C31.4904 7.73925 38.063 2.05912 40.4239 0L51 8.26412C49.6145 11.0139 45.7364 18.7978 43.0504 23.1264C40.6024 27.0746 37.2576 26.979 35.3536 26.9195C34.952 26.9216 34.5461 27.0874 34.2975 27.4061C33.7705 28.0798 32.4976 29.6671 30.8656 31.6944L39.304 42.4256C41.1081 44.7313 40.698 48.0781 38.3903 49.8823C37.4829 50.5899 36.2908 51 35.0689 51C33.5771 51 32.0408 50.388 30.9294 48.9664L23.9742 40.239C20.6295 44.3806 17.6864 48.0887 17.0956 48.8474C16.0161 50.2265 14.4628 51 12.869 51C11.7831 51 10.6802 50.643 9.69425 49.8716C7.05925 47.8146 6.902 44.6356 8.72313 42.3066C9.57312 41.2165 13.3195 36.516 17.1636 31.7539L15.8419 30.1049L11.5791 33.4369C7.50975 27.8524 0 13.0602 0 5.17225C0 -0.201875 3.76975 0.002125 3.90363 0.002125C5.0575 0.002125 6.20713 0.529125 7.004 1.5385C7.905 2.67325 16.1585 13.1049 24.1017 23.1455ZM16.575 24.1421L34.2784 46.3505C34.7693 46.9774 35.5066 46.7415 35.7701 46.5354L35.7722 46.5333C36.2334 46.172 36.3162 45.5047 35.955 45.0415C35.955 45.0415 7.43962 8.9675 4.16712 4.80675C4.01837 7.837 6.68525 16.8512 12.6714 27.1915L16.575 24.1421ZM19.8836 35.1432L12.206 44.7504C11.8384 45.2221 11.5154 45.9021 12.2124 46.4461C12.9094 46.9923 13.4895 46.5609 13.8805 46.0594L21.2458 36.839L19.8836 35.1432ZM28.1499 28.2604L31.178 24.497C31.9409 23.5174 32.7973 22.678 34.9414 22.6653C36.5521 22.6568 38.0758 23.0839 39.4421 20.8866C41.8285 17.034 45.9106 9.6815 45.9106 9.6815L45.0691 9.02275L38.5815 17.4377L37.1832 16.3455L43.5179 7.8115L42.6424 7.12725L35.87 15.317L34.4994 14.2481L41.0401 5.87775L40.2432 5.253C40.2432 5.253 34.1509 11.1074 31.0335 14.3735C29.3144 16.1734 30.0794 17.5886 30.4428 19.1292C30.9336 21.2118 30.26 22.2169 29.5077 23.1816L26.7962 26.5519L28.1499 28.2604Z" fill="#ED4141"/>
</svg>
