<svg width="23" height="23" viewBox="0 0 23 23" fill="none" xmlns="http://www.w3.org/2000/svg">
<path d="M9.70001 0.699951C4.74011 0.699951 0.700012 4.74005 0.700012 9.69995C0.700012 14.6599 4.74011 18.7 9.70001 18.7C11.8569 18.7 13.8377 17.934 15.3901 16.6626L20.7637 22.0363C20.8466 22.1227 20.9459 22.1916 21.0559 22.2391C21.1658 22.2866 21.2841 22.3117 21.4038 22.313C21.5235 22.3142 21.6423 22.2915 21.7532 22.2462C21.864 22.201 21.9648 22.134 22.0494 22.0494C22.1341 21.9647 22.201 21.864 22.2463 21.7531C22.2915 21.6423 22.3142 21.5235 22.313 21.4037C22.3118 21.284 22.2867 21.1657 22.2392 21.0558C22.1917 20.9459 22.1227 20.8466 22.0363 20.7636L16.6627 15.39C17.9341 13.8376 18.7 11.8568 18.7 9.69995C18.7 4.74005 14.6599 0.699951 9.70001 0.699951ZM9.70001 2.49995C13.6871 2.49995 16.9 5.71284 16.9 9.69995C16.9 13.6871 13.6871 16.9 9.70001 16.9C5.7129 16.9 2.50001 13.6871 2.50001 9.69995C2.50001 5.71284 5.7129 2.49995 9.70001 2.49995Z" fill="white"/>
<path d="M9.70001 0.699951C4.74011 0.699951 0.700012 4.74005 0.700012 9.69995C0.700012 14.6599 4.74011 18.7 9.70001 18.7C11.8569 18.7 13.8377 17.934 15.3901 16.6626L20.7637 22.0363C20.8466 22.1227 20.9459 22.1916 21.0559 22.2391C21.1658 22.2866 21.2841 22.3117 21.4038 22.313C21.5235 22.3142 21.6423 22.2915 21.7532 22.2462C21.864 22.201 21.9648 22.134 22.0494 22.0494C22.1341 21.9647 22.201 21.864 22.2463 21.7531C22.2915 21.6423 22.3142 21.5235 22.313 21.4037C22.3118 21.284 22.2867 21.1657 22.2392 21.0558C22.1917 20.9459 22.1227 20.8466 22.0363 20.7636L16.6627 15.39C17.9341 13.8376 18.7 11.8568 18.7 9.69995C18.7 4.74005 14.6599 0.699951 9.70001 0.699951ZM9.70001 2.49995C13.6871 2.49995 16.9 5.71284 16.9 9.69995C16.9 13.6871 13.6871 16.9 9.70001 16.9C5.7129 16.9 2.50001 13.6871 2.50001 9.69995C2.50001 5.71284 5.7129 2.49995 9.70001 2.49995Z" stroke="white"/>
</svg>