<svg width="19" height="22" viewBox="0 0 19 22" fill="none" xmlns="http://www.w3.org/2000/svg">
<path d="M18.9992 19.9527L18.3521 5.11007C18.3407 4.01433 17.4549 3.12548 16.3677 3.12548H13.0786C12.8117 1.37664 11.3076 0 9.49774 0C7.68742 0 6.18292 1.37664 5.91593 3.12548H2.63131C1.54445 3.12548 0.658921 4.01435 0.647519 5.11011L0.000816254 19.9522C0.000280587 19.9648 0 19.9775 0 19.9902C0 21.0983 0.890188 22 1.98441 22H17.0157C18.1098 22 19 21.0986 19 19.9904C19 19.9778 18.9997 19.9653 18.9992 19.9527ZM9.49774 1.7118C10.3745 1.7118 11.1167 2.30934 11.3549 3.12546H7.6396C7.87792 2.30935 8.62051 1.7118 9.49774 1.7118ZM17.0157 20.29H1.98441C1.82102 20.29 1.69213 20.1651 1.68559 20.0042L2.33188 5.17084C2.33243 5.15826 2.3327 5.14349 2.3327 5.13089C2.3327 4.96643 2.46385 4.83545 2.6313 4.83545H5.86682V7.9634C5.86682 8.43611 6.24319 8.8193 6.70859 8.8193C7.17398 8.8193 7.55035 8.43611 7.55035 7.9634V4.83545H11.4276V7.9634C11.4276 8.43611 11.8039 8.8193 12.2693 8.8193C12.7347 8.8193 13.1111 8.43611 13.1111 7.9634V4.83545H16.3677C16.5355 4.83545 16.6669 4.96623 16.6669 5.13068C16.6669 5.1433 16.6672 5.15689 16.6677 5.16952L17.3144 20.0038C17.3079 20.1646 17.179 20.29 17.0157 20.29Z" fill="white"/>
</svg>
