<svg width="38" height="38" viewBox="0 0 38 38" fill="none" xmlns="http://www.w3.org/2000/svg">
<path fill-rule="evenodd" clip-rule="evenodd" d="M19 0C8.50662 0 0 8.50662 0 19C0 29.4934 8.50662 38 19 38C29.4934 38 38 29.4934 38 19C38 8.50662 29.4934 0 19 0ZM20.547 24.9978C20.3597 25.1953 19.9939 25.2352 19.9939 25.2352H18.7826C18.7826 25.2352 16.1102 25.3929 13.756 22.9876C11.1887 20.3634 8.92169 15.1569 8.92169 15.1569C8.92169 15.1569 8.7909 14.8153 8.93261 14.6509C9.09221 14.4651 9.52739 14.4534 9.52739 14.4534L12.4228 14.4349C12.4228 14.4349 12.6954 14.4787 12.8906 14.6198C13.0522 14.7366 13.1425 14.9536 13.1425 14.9536C13.1425 14.9536 13.6103 16.1153 14.2298 17.1661C15.4401 19.2182 16.0031 19.6667 16.4135 19.4468C17.0123 19.1267 16.8328 16.5463 16.8328 16.5463C16.8328 16.5463 16.8437 15.6103 16.5315 15.1929C16.2897 14.8699 15.8337 14.7754 15.6324 14.7492C15.4689 14.7278 15.7365 14.3561 16.0834 14.1898C16.6048 13.9397 17.5247 13.9251 18.6121 13.9358C19.4596 13.9445 19.7035 13.9961 20.0346 14.0749C20.8029 14.2569 20.779 14.8402 20.7272 16.0991C20.7117 16.4756 20.6937 16.9125 20.6937 17.4171C20.6937 17.5306 20.6904 17.6515 20.6869 17.7758C20.6689 18.4207 20.6483 19.1593 21.0813 19.4342C21.3034 19.5743 21.8456 19.4547 23.2026 17.1933C23.8459 16.1211 24.3276 14.8611 24.3276 14.8611C24.3276 14.8611 24.4337 14.6363 24.5972 14.54C24.7648 14.4417 24.9908 14.4719 24.9908 14.4719L28.0378 14.4534C28.0378 14.4534 28.9538 14.3454 29.1014 14.7522C29.2571 15.1773 28.7595 16.1717 27.5145 17.8005C26.3334 19.346 25.7588 19.915 25.8115 20.4183C25.8501 20.786 26.2236 21.1186 26.9406 21.7713C28.4371 23.1353 28.8383 23.8528 28.9346 24.0253C28.9426 24.0395 28.9485 24.05 28.9528 24.0569C29.6238 25.1496 28.2084 25.2352 28.2084 25.2352L25.5012 25.2722C25.5012 25.2722 24.9204 25.3851 24.1552 24.8694C23.7543 24.5995 23.3626 24.1587 22.9895 23.7388C22.4197 23.0975 21.8934 22.5052 21.4441 22.6451C20.6897 22.8806 20.7125 24.4753 20.7125 24.4753C20.7125 24.4753 20.7185 24.8169 20.547 24.9978Z" fill="white"/>
</svg>
